<svg width="96" height="96" xmlns="http://www.w3.org/2000/svg" xmlns:xlink="http://www.w3.org/1999/xlink" xml:space="preserve" overflow="hidden"><defs><clipPath id="clip0"><rect x="433" y="439" width="96" height="96"/></clipPath></defs><g clip-path="url(#clip0)" transform="translate(-433 -439)"><path d="M456 459 467 459 467 465 495 465 495 459 506 459 506 521 456 521 456 459ZM481.1 451C482.7 451 484 452.4 484 454 484 455.7 482.7 457 481 457 479.3 457 478 455.7 478 454 478 452.3 479.3 451 481.1 451ZM450 457 450 523C450 525.2 451.8 527 454 527L508 527C510.2 527 512 525.2 512 523L512 457C512 454.8 510.2 453 508 453L491 453 491 451C491 448.8 489.2 447 487 447L475 447C472.8 447 471 448.8 471 451L471 453 454 453C451.8 453 450 454.8 450 457Z"/><path d="M462 473 500 473 500 477 462 477Z"/><path d="M462 502 477 502 477 506 462 506Z"/><path d="M481 481 500 481 500 485 481 485Z"/><path d="M484.8 508.7 481 515.6 484.3 515.1 486 517.8 490 510.6C489.5 510.5 489 510.3 488.5 510 488.3 510 488.1 510.1 487.8 510.1 487.3 510.1 486.7 510 486.2 509.8 485.7 509.5 485.2 509.2 484.8 508.7Z"/><path d="M491.3 510.6 495.1 518 496.7 515 499.9 515.7 496.3 508.5 496.2 508.5C495.8 509.1 495.1 509.6 494.4 509.9 493.9 510.1 493.5 510.2 493 510.2 492.8 510.2 492.6 510.2 492.4 510.2 492.1 510.4 491.7 510.5 491.3 510.6Z"/><path d="M485.2 499.9 485.2 499.9C485.2 496.8 487.7 494.4 490.7 494.4 493.8 494.4 496.2 496.9 496.2 499.9 496.2 502.9 493.7 505.4 490.7 505.4 487.6 505.4 485.2 502.9 485.2 499.9ZM481.3 499.9C481.3 500.5 481.5 501.1 481.9 501.5 481.7 502.1 481.7 502.7 481.9 503.3 482.1 503.9 482.6 504.4 483.3 504.7 483.3 505.4 483.5 506 484 506.5 484.4 506.9 485 507.2 485.6 507.2 485.8 507.8 486.3 508.2 486.8 508.4 487.4 508.7 488.1 508.7 488.8 508.4 489.3 508.9 489.9 509.2 490.6 509.2 491.2 509.2 491.8 509 492.2 508.6 492.8 508.8 493.4 508.8 494 508.6 494.6 508.4 495.1 507.9 495.4 507.2 496.1 507.2 496.7 507 497.2 506.5 497.6 506.1 497.9 505.5 497.9 504.9 498.5 504.7 498.9 504.2 499.1 503.7 499.4 503.1 499.4 502.4 499.1 501.7 499.6 501.2 499.9 500.6 499.9 499.9 499.9 499.3 499.7 498.7 499.3 498.3 499.5 497.7 499.5 497.1 499.3 496.5 499.1 495.9 498.6 495.4 497.9 495.1 497.9 494.4 497.7 493.8 497.2 493.3 496.8 492.9 496.2 492.6 495.6 492.6 495.4 492 494.9 491.6 494.4 491.4 493.8 491.1 493.1 491.1 492.4 491.4 491.9 490.9 491.3 490.6 490.6 490.6 490 490.6 489.4 490.8 489 491.2 488.4 491 487.8 491 487.2 491.2 486.6 491.4 486.1 491.9 485.8 492.6 485.1 492.6 484.5 492.8 484 493.3 483.6 493.7 483.3 494.3 483.3 494.9 482.7 495.1 482.3 495.6 482.1 496.1 481.8 496.7 481.8 497.4 482.1 498.1 481.5 498.5 481.3 499.2 481.3 499.9L481.3 499.9Z"/></g></svg>