<svg width="96" height="96" xmlns="http://www.w3.org/2000/svg" xmlns:xlink="http://www.w3.org/1999/xlink" xml:space="preserve" overflow="hidden"><defs><clipPath id="clip0"><rect x="301" y="352" width="96" height="96"/></clipPath></defs><g clip-path="url(#clip0)" transform="translate(-301 -352)"><path d="M386 389.4C384.3 385.3 379.6 383.4 375.5 385.1 372.1 386.5 370.1 390.1 370.6 393.6L357.7 399C356.3 396.6 353.8 394.8 351 394.3L351 380.4C354.4 379.5 357 376.4 357 372.7 357 368.3 353.4 364.7 349 364.7L349 364.7C344.6 364.7 341 368.3 341 372.7 341 376.4 343.6 379.5 347 380.4L347 394.2C344.1 394.7 341.7 396.5 340.3 398.9L327.4 393.5C327.9 390 326 386.4 322.5 385 318.4 383.3 313.7 385.2 312 389.3 310.3 393.4 312.2 398.1 316.3 399.8 319.7 401.2 323.6 400.1 325.7 397.2L338.9 402.6C338.8 403 338.8 403.5 338.8 403.9 338.8 406.1 339.5 408.2 340.8 409.9L330.4 420.4C327.3 418.6 323.3 419 320.7 421.6 317.6 424.7 317.6 429.8 320.7 432.9 323.8 436 328.9 436 332 432.9 334.6 430.3 335 426.3 333.2 423.2L343.8 412.6C345.3 413.5 347 414 348.8 414 348.9 414 348.9 414 349 414 349.1 414 349.1 414 349.2 414 351 414 352.7 413.5 354.2 412.6L364.8 423.2C363 426.3 363.4 430.3 366 433 369.1 436.1 374.2 436.1 377.3 433 380.4 429.9 380.4 424.8 377.3 421.7 374.7 419.1 370.7 418.7 367.6 420.5L357.2 410C358.5 408.3 359.2 406.3 359.2 404 359.2 403.6 359.2 403.1 359.1 402.7L372.3 397.3C374.4 400.1 378.3 401.3 381.7 399.9 385.7 398.1 387.7 393.5 386 389.4Z"/></g></svg>