<svg width="96" height="96" xmlns="http://www.w3.org/2000/svg" xmlns:xlink="http://www.w3.org/1999/xlink" xml:space="preserve" overflow="hidden"><defs><clipPath id="clip0"><rect x="39" y="600" width="96" height="96"/></clipPath></defs><g clip-path="url(#clip0)" transform="translate(-39 -600)"><path d="M95 658 47 658 47 626 95 626 95 658ZM97 620 45 620C42.8 620 41 621.8 41 624L41 660C41 662.2 42.8 664 45 664L65 664 65 670 56 670 56 676 86 676 86 670 77 670 77 664 97 664C99.2 664 101 662.2 101 660L101 624C101 621.8 99.2 620 97 620Z"/><path d="M129 630 109 630 109 624 129 624 129 630ZM129 640 109 640 109 634 129 634 129 640ZM119 670C117.3 670 116 668.7 116 667 116 665.3 117.3 664 119 664 120.7 664 122 665.3 122 667 122 668.7 120.7 670 119 670ZM129 620 109 620C106.8 620 105 621.8 105 624L105 672C105 674.2 106.8 676 109 676L129 676C131.2 676 133 674.2 133 672L133 624C133 621.8 131.2 620 129 620Z"/></g></svg>