<svg width="96" height="96" xmlns="http://www.w3.org/2000/svg" xmlns:xlink="http://www.w3.org/1999/xlink" xml:space="preserve" overflow="hidden"><defs><clipPath id="clip0"><rect x="169" y="409" width="96" height="96"/></clipPath></defs><g clip-path="url(#clip0)" transform="translate(-169 -409)"><path d="M192 423 242 423 242 491 192 491 192 423ZM186 497 248 497 248 417 186 417 186 497Z"/><path d="M199 429 207 429 207 437 199 437Z"/><path d="M215 431 235 431 235 435 215 435Z"/><path d="M199 445 207 445 207 453 199 453Z"/><path d="M215 447 235 447 235 451 215 451Z"/><path d="M199 461 207 461 207 469 199 469Z"/><path d="M215 463 235 463 235 467 215 467Z"/><path d="M199 477 207 477 207 485 199 485Z"/><path d="M215 479 235 479 235 483 215 483Z"/></g></svg>