<svg width="96" height="96" xmlns="http://www.w3.org/2000/svg" xmlns:xlink="http://www.w3.org/1999/xlink" xml:space="preserve" overflow="hidden"><defs><clipPath id="clip0"><rect x="592" y="312" width="96" height="96"/></clipPath></defs><g clip-path="url(#clip0)" transform="translate(-592 -312)"><path d="M646.472 361.361C645.146 369.595 641.894 377.4 636.981 384.14L637.235 384.394C635.677 384.572 634.187 384.768 632.886 384.957 633.27 383.325 633.032 381.609 632.218 380.143 631.417 378.941 630.057 378.231 628.612 378.261L628.572 378.261C625.845 378.282 622.917 379.735 620.454 381.397 620.387 381.244 620.313 381.092 620.231 380.943 619.433 379.508 618 378.539 616.371 378.333 615.122 378.186 613.858 378.398 612.725 378.944 613.238 376.775 613.193 374.51 612.594 372.363 611.767 369.812 609.754 367.821 607.194 367.022 605.289 366.401 603.265 366.234 601.284 366.533 599.436 366.801 597.628 367.293 595.9 368 594.344 368.568 593.542 370.29 594.11 371.847 594.678 373.403 596.401 374.204 597.957 373.636 598.005 373.619 598.053 373.6 598.1 373.58 599.371 373.057 600.701 372.689 602.061 372.485 603.12 372.31 604.206 372.383 605.232 372.697 606.016 372.882 606.645 373.464 606.889 374.231 608.045 377.76 604.194 385.78 600.897 390.731 600.75 390.943 600.613 391.147 600.484 391.338 599.556 392.711 599.918 394.576 601.29 395.503 602.656 396.426 604.509 396.074 605.442 394.717 605.516 394.61 605.631 394.442 605.781 394.217 608.938 389.617 613.036 385.292 614.944 384.426 614.827 385.292 614.595 386.139 614.253 386.943 613.583 388.458 614.269 390.23 615.785 390.899 616.924 391.403 618.257 391.15 619.132 390.263 621.354 387.999 623.94 386.125 626.783 384.719 626.539 385.668 626.225 386.597 625.842 387.498 625.182 389.018 625.878 390.785 627.398 391.445 627.946 391.683 628.554 391.752 629.142 391.643 629.203 391.631 635.312 390.507 641.222 390.029 641.663 389.99 642.09 389.854 642.471 389.629L642.671 389.829C649.411 384.915 657.216 381.663 665.451 380.338 665.451 380.338 666.735 373.371 676.729 363.359L663.444 350.075C653.43 360.069 646.472 361.361 646.472 361.361ZM656.913 373.7C656.138 374.474 654.97 374.698 653.963 374.268L640.763 387.468 639.35 386.052 652.55 372.852C651.969 371.489 652.603 369.913 653.966 369.332 655.329 368.75 656.905 369.384 657.486 370.747 657.916 371.755 657.689 372.924 656.914 373.698Z"/><path d="M664.438 345.316 681.522 362.4C681.522 362.4 683.213 360.851 685.981 358.308L685.981 322C674.085 334.8 664.438 345.316 664.438 345.316Z"/></g></svg>