<svg width="96" height="96" xmlns="http://www.w3.org/2000/svg" xmlns:xlink="http://www.w3.org/1999/xlink" xml:space="preserve" overflow="hidden"><defs><clipPath id="clip0"><rect x="299" y="596" width="96" height="96"/></clipPath></defs><g clip-path="url(#clip0)" transform="translate(-299 -596)"><path d="M357 615.438C356.733 615.571 356.471 615.714 356.213 615.866 351.311 618.758 348.732 624.401 349.753 630L357 630Z"/><path d="M350.662 633C353.664 639.867 361.664 643 368.53 639.998 369.021 639.783 369.5 639.539 369.962 639.268 369.974 639.26 369.986 639.251 369.998 639.244L369.998 633Z"/><path d="M351.147 607.243C351.294 607.157 351.447 607.083 351.595 607L334 607 334 630 339.651 630C338.703 620.819 343.195 611.928 351.147 607.243ZM337 610 341 610 341 614 337 614Z"/><path d="M370 650.663 369.71 650.17C367.563 650.8 365.337 651.119 363.1 651.116 357.124 651.104 351.373 648.833 347 644.76L347 656 370 656Z"/><path d="M377.39 667.4 372.457 659 360 659 360 682 382 682 382 670.956C380.061 670.411 378.409 669.136 377.39 667.4ZM367 666 363 666 363 662 367 662Z"/><path d="M334 682 357 682 357 659 334 659ZM337 662 341 662 341 666 337 666Z"/><path d="M308 682 331 682 331 659 308 659ZM311 662 315 662 315 666 311 666Z"/><path d="M344 641.372C343.564 640.772 343.145 640.154 342.766 639.508 341.573 637.482 340.692 635.288 340.151 633L321 633 321 656 344 656ZM328 640 324 640 324 636 328 636Z"/><path d="M380.825 617.146C375.08 607.345 362.477 604.056 352.676 609.802 342.874 615.547 339.586 628.15 345.331 637.951 350.545 646.846 361.537 650.507 371.043 646.515L373.569 650.815C372.89 652.26 372.968 653.948 373.777 655.324L379.977 665.874C381.361 668.165 384.339 668.901 386.63 667.517 388.882 666.157 389.638 663.249 388.333 660.965L382.133 650.415C381.325 649.039 379.891 648.15 378.3 648.038L375.774 643.738C383.867 637.382 386.024 626.027 380.825 617.146ZM348.8 635.962C344.164 628.071 346.801 617.916 354.692 613.28 362.582 608.643 372.738 611.281 377.374 619.172 382.011 627.062 379.373 637.217 371.482 641.854 371.482 641.854 371.482 641.854 371.482 641.854 363.59 646.479 353.443 643.843 348.8 635.962Z"/></g></svg>