<svg width="96" height="96" xmlns="http://www.w3.org/2000/svg" xmlns:xlink="http://www.w3.org/1999/xlink" xml:space="preserve" overflow="hidden"><defs><clipPath id="clip0"><rect x="640" y="418" width="96" height="96"/></clipPath></defs><g clip-path="url(#clip0)" transform="translate(-640 -418)"><path d="M698.049 423.755C697.535 423.553 696.954 423.806 696.753 424.32 696.551 424.835 696.804 425.415 697.318 425.617 716.086 432.973 725.338 454.151 717.982 472.919 710.625 491.688 689.447 500.939 670.679 493.583 670.165 493.381 669.584 493.634 669.383 494.148 669.181 494.663 669.434 495.243 669.948 495.445 674.112 497.078 678.529 497.97 683 498.08L683 505.1 670.5 505.1C668.291 505.1 666.5 506.891 666.5 509.1L668.5 509.1C668.5 507.995 669.395 507.1 670.5 507.1L697.5 507.1C698.605 507.1 699.5 507.995 699.5 509.1L701.5 509.1C701.5 506.891 699.709 505.1 697.5 505.1L685 505.1 685 498.062C706.247 497.52 723.032 479.857 722.491 458.61 722.096 443.133 712.466 429.399 698.049 423.755Z"/><path d="M659.5 510.1 708.5 510.1 708.5 512.1 659.5 512.1Z"/><path d="M671.631 489.654C688.23 496.485 707.223 488.567 714.054 471.968 720.885 455.369 712.966 436.376 696.368 429.545 679.769 422.714 660.776 430.632 653.945 447.231 647.058 463.695 654.822 482.625 671.286 489.512 671.401 489.56 671.516 489.607 671.631 489.654ZM685.305 459.054 696.165 432.667C701.41 441.677 702.115 453.519 697.994 464.276ZM697.233 466.126C692.588 476.666 683.752 484.581 673.685 487.29L684.544 460.905ZM683.456 458.3 670.767 453.072C675.412 442.532 684.248 434.617 694.315 431.908ZM682.7 460.144 671.835 486.531C666.59 477.521 665.885 465.679 670.006 454.922ZM675.42 488.868C685.571 485.708 694.386 477.574 699.082 466.889L711.8 472.123C705.537 485.987 690.025 493.127 675.42 488.868ZM712.562 470.274 699.843 465.039C704.03 454.139 703.493 442.162 698.507 432.772 711.879 440.027 717.872 456.018 712.562 470.274ZM684.039 429.1C686.929 429.101 689.805 429.516 692.577 430.333 682.427 433.494 673.613 441.627 668.918 452.311L656.211 447.082C661.147 436.14 672.035 429.104 684.039 429.1ZM655.439 448.926 668.158 454.161C663.971 465.056 664.508 477.038 669.494 486.428 656.122 479.173 650.129 463.183 655.438 448.926Z"/></g></svg>