<svg width="96" height="96" xmlns="http://www.w3.org/2000/svg" xmlns:xlink="http://www.w3.org/1999/xlink" xml:space="preserve" overflow="hidden"><defs><clipPath id="clip0"><rect x="301" y="453" width="96" height="96"/></clipPath></defs><g clip-path="url(#clip0)" transform="translate(-301 -453)"><path d="M374.489 456 374.489 456C376.047 461.49 379.893 466.044 385.045 468.5L385.045 468.5C379.893 470.956 376.047 475.51 374.489 481L374.489 481C372.93 475.51 369.085 470.956 363.933 468.5L363.933 468.5C369.085 466.044 372.93 461.49 374.489 456Z"/><path d="M388.511 477 388.511 477C389.321 479.855 391.321 482.223 394 483.5L394 483.5C391.321 484.777 389.321 487.145 388.511 490L388.511 490C387.701 487.145 385.701 484.777 383.022 483.5L383.022 483.5C385.701 482.223 387.701 479.855 388.511 477Z"/><path d="M314.885 467 314.885 467C316.07 471.173 318.992 474.634 322.908 476.5L322.908 476.5C318.992 478.366 316.07 481.827 314.885 486L314.885 486C313.701 481.828 310.778 478.366 306.863 476.5L306.863 476.5C310.778 474.634 313.701 471.172 314.885 467Z"/><path d="M348.974 464.993 348.974 464.993 306.997 504.971 311.494 508.769 348.974 473.189 348.974 473.189 386.453 508.769 390.951 504.971 348.974 464.993 348.974 464.993Z"/><path d="M318.99 507.27 318.99 536.954 342.977 536.954 342.977 511.968 354.97 511.968 354.97 536.954 378.957 536.954 378.957 507.27 348.974 478.786 318.99 507.27 318.99 507.27 318.99 507.27Z"/></g></svg>