<svg width="96" height="96" xmlns="http://www.w3.org/2000/svg" xmlns:xlink="http://www.w3.org/1999/xlink" xml:space="preserve" overflow="hidden"><defs><clipPath id="clip0"><rect x="433" y="235" width="96" height="96"/></clipPath></defs><g clip-path="url(#clip0)" transform="translate(-433 -235)"><path d="M480.985 245C460.009 244.999 443.005 262.003 443.004 282.979 443.003 303.955 460.007 320.959 480.983 320.96 501.959 320.961 518.963 303.957 518.964 282.981 518.964 282.98 518.964 282.978 518.964 282.977 518.972 262.011 501.981 245.008 481.015 245 481.005 245 480.995 245 480.985 245ZM475.441 276.18 469.324 276.18 469.324 294.4 465.8 294.4 465.8 276.178 459.726 276.178 459.726 273.178 475.441 273.178ZM481.371 276.599C481.411 277.662 481.431 278.717 481.431 279.766L481.431 294.4 478.162 294.4 478.162 273.182 483.14 273.182 488.793 287.568C488.934 287.934 489.071 288.293 489.205 288.644 489.34 289.003 489.449 289.37 489.532 289.744L489.616 289.744C489.756 289.322 489.897 288.904 490.038 288.489 490.179 288.074 490.334 287.663 490.502 287.255L496.202 273.185 500.969 273.185 500.969 294.4 497.489 294.4 497.489 280.671C497.489 279.982 497.507 279.293 497.542 278.603 497.573 277.981 497.619 277.359 497.68 276.737L497.633 276.737C497.545 277.007 497.462 277.277 497.383 277.547 497.285 277.884 497.173 278.215 497.046 278.538L490.713 294.4 488.287 294.4 481.938 278.667C481.796 278.341 481.687 278.001 481.611 277.654 481.534 277.303 481.46 276.951 481.389 276.599Z"/></g></svg>