<svg width="96" height="96" xmlns="http://www.w3.org/2000/svg" xmlns:xlink="http://www.w3.org/1999/xlink" xml:space="preserve" overflow="hidden"><defs><clipPath id="clip0"><rect x="573" y="510" width="96" height="96"/></clipPath></defs><g clip-path="url(#clip0)" transform="translate(-573 -510)"><path d="M621 534C619.305 534.038 617.963 535.443 618 537.137L618 546C618 547.657 619.343 549 621 549 622.657 549 624 547.657 624 546L624 537.137C624.037 535.443 622.695 534.038 621 534Z"/><path d="M645.2 571.737C644.529 566.383 644.147 560.996 644.057 555.6 644.057 551.2 644.257 547.054 644.548 543.336 645.563 530.964 636.358 520.112 623.986 519.097 623.695 519.073 623.404 519.055 623.113 519.042 622.398 519.014 621.67 519 620.928 519 620.186 519 619.458 519.014 618.743 519.042 606.341 519.575 596.72 530.062 597.254 542.463 597.266 542.753 597.284 543.043 597.308 543.333 597.6 547.051 597.8 551.2 597.8 555.6 597.708 560.997 597.326 566.385 596.653 571.74 595.121 584.614 604.316 596.291 617.189 597.823 617.778 597.893 618.369 597.941 618.961 597.966 619.605 597.988 620.261 597.999 620.928 598 621.595 598.001 622.252 597.989 622.897 597.966 635.849 597.411 645.898 586.461 645.343 573.509 645.318 572.917 645.27 572.326 645.2 571.737ZM628 546C628.014 549.129 625.986 551.902 623 552.837L623 568C623 569.105 622.105 570 621 570 619.895 570 619 569.105 619 568L619 552.837C616.014 551.902 613.986 549.129 614 546L614 537.138C613.985 534.008 616.013 531.235 619 530.3L619 525C619 523.895 619.895 523 621 523 622.105 523 623 523.895 623 525L623 530.3C625.986 531.235 628.014 534.008 628 537.138Z"/></g></svg>