<svg width="96" height="96" xmlns="http://www.w3.org/2000/svg" xmlns:xlink="http://www.w3.org/1999/xlink" xml:space="preserve" overflow="hidden"><defs><clipPath id="clip0"><rect x="571" y="162" width="96" height="96"/></clipPath></defs><g clip-path="url(#clip0)" transform="translate(-571 -162)"><path d="M635 192C635 200.837 627.837 208 619 208 610.163 208 603 200.837 603 192 603 183.163 610.163 176 619 176 627.837 176 635 183.163 635 192Z"/><path d="M651 244 651 228C651 225.6 649.8 223.2 647.8 221.6 643.4 218 637.8 215.6 632.2 214 628.2 212.8 623.8 212 619 212 614.6 212 610.2 212.8 605.8 214 600.2 215.6 594.6 218.4 590.2 221.6 588.2 223.2 587 225.6 587 228L587 244 651 244Z"/></g></svg>