<svg width="96" height="96" xmlns="http://www.w3.org/2000/svg" xmlns:xlink="http://www.w3.org/1999/xlink" xml:space="preserve" overflow="hidden"><defs><clipPath id="clip0"><rect x="39" y="216" width="96" height="96"/></clipPath></defs><g clip-path="url(#clip0)" transform="translate(-39 -216)"><path d="M123 245 123 241.68C123.001 241.233 122.909 240.79 122.73 240.38L116.85 227 57.15 227 51.27 240.38C51.0907 240.79 50.9987 241.233 51 241.68L51 245C51 247.209 52.7909 249 55 249L55 273 51 273 51 279 55 279 55 300 119 300 119 279 123 279 123 273 119 273 119 249C121.209 249 123 247.209 123 245ZM111.2 233 115 241 115 245C115 247.209 113.209 249 111 249 108.791 249 107 247.209 107 245L107 241 103.2 233ZM96.6 233 99 241 99 245C99 247.209 97.2091 249 95 249 92.7909 249 91 247.209 91 245L91 241 89.6 233ZM75 241 77.4 233 84.4 233 83 241 83 245C83 247.209 81.2091 249 79 249 76.7909 249 75 247.209 75 245ZM59 241 62.8 233 70.8 233 67 241 67 245C67 247.209 65.2091 249 63 249 60.7909 249 59 247.209 59 245ZM61 273 61 256 113 256 113 273Z"/></g></svg>