<svg width="96" height="96" xmlns="http://www.w3.org/2000/svg" xmlns:xlink="http://www.w3.org/1999/xlink" xml:space="preserve" overflow="hidden"><defs><clipPath id="clip0"><rect x="39" y="408" width="96" height="96"/></clipPath></defs><g clip-path="url(#clip0)" transform="translate(-39 -408)"><path d="M117.8 429.39 121.361 425.855C122.136 425.174 122.212 423.994 121.531 423.219 121.493 423.175 121.452 423.133 121.41 423.093L117.91 419.593C117.152 418.817 115.908 418.802 115.131 419.561 115.12 419.571 115.11 419.582 115.099 419.593L111.538 423.128Z"/><path d="M105.002 468.5 105.002 465.5 97.502 465.5 97.502 476.5 96.002 476.5 96.002 479.5 115.502 479.5 115.502 444.5 107.061 444.5 104.061 447.5 112.502 447.5 112.502 456.5 97 456.5 97 459.5 112.502 459.5 112.502 465.5 110.002 465.5 110.002 468.5 112.502 468.5 112.502 476.5 100.502 476.5 100.502 468.5 105.002 468.5Z"/><path d="M120.561 431 114.561 437 122 437 122 486 63.475 486C63.7067 485.354 63.863 484.682 63.941 484L64 483 64 437 93.48 437 99.469 431 64 431 64 430C64 425.029 59.9706 421 55 421 50.0294 421 46 425.029 46 430L46 483 46.059 484C46.5565 488.382 50.1543 491.759 54.559 491.978L54.559 492 128 492 128 431ZM55 486C53.3431 486 52 484.657 52 483 52 481.343 53.3431 480 55 480 56.6569 480 58 481.343 58 483 58 484.657 56.6569 486 55 486ZM58 474.525C56.0612 473.825 53.9388 473.825 52 474.525L52 430C52 428.343 53.3431 427 55 427 56.6569 427 58 428.343 58 430Z"/><path d="M83.001 447.5 85.995 444.5 70.5 444.5 70.5 479.5 90.002 479.5 90.002 476.5 88.502 476.5 88.502 465.5 81.002 465.5 81.002 468.5 85.502 468.5 85.502 476.5 73.5 476.5 73.5 468.5 76.002 468.5 76.002 465.5 73.5 465.5 73.5 459.5 79.011 459.5 80.006 456.5 73.5 456.5 73.5 447.5 83.001 447.5Z"/><path d="M110.14 424.554 85.609 449.133 82.5 458.5 91.92 455.393 116.45 430.862ZM90.886 453.67 86.694 455.052 85.955 454.312 87.335 450.12C88.3366 449.172 89.911 449.194 90.886 450.169 91.8528 451.108 91.8755 452.652 90.9367 453.619 90.92 453.637 90.9031 453.653 90.886 453.67Z"/></g></svg>