<svg width="96" height="96" xmlns="http://www.w3.org/2000/svg" xmlns:xlink="http://www.w3.org/1999/xlink" xml:space="preserve" overflow="hidden"><defs><clipPath id="clip0"><rect x="301" y="244" width="96" height="96"/></clipPath></defs><g clip-path="url(#clip0)" transform="translate(-301 -244)"><path d="M324 326 324 258 349 258 349 279 374 279 374 326 324 326ZM355 260.5 367.5 273 355 273 355 260.5ZM355 252 318 252 318 332 380 332 380 274 355 252Z"/><path d="M330 289 368 289 368 293 330 293Z"/><path d="M330 281 343 281 343 285 330 285Z"/><path d="M330 297 368 297 368 301 330 301Z"/><path d="M330 305 368 305 368 309 330 309Z"/><path d="M330 313 368 313 368 317 330 317Z"/></g></svg>