<svg width="96" height="96" xmlns="http://www.w3.org/2000/svg" xmlns:xlink="http://www.w3.org/1999/xlink" xml:space="preserve" overflow="hidden"><defs><clipPath id="clip0"><rect x="283" y="40" width="96" height="96"/></clipPath></defs><g clip-path="url(#clip0)" transform="translate(-283 -40)"><path d="M356 122 306 122 306 60 317 60 317 66 345 66 345 60 356 60ZM331 52C332.657 52 334 53.3431 334 55 334 56.6569 332.657 58 331 58 329.343 58 328 56.6569 328 55 327.973 53.3704 329.272 52.0273 330.901 52 330.934 51.9994 330.967 51.9994 331 52ZM358 54 341 54 341 52C341 49.7909 339.209 48 337 48L325 48C322.791 48 321 49.7909 321 52L321 54 304 54C301.791 54 300 55.7909 300 58L300 124C300 126.209 301.791 128 304 128L358 128C360.209 128 362 126.209 362 124L362 58C362 55.7909 360.209 54 358 54Z"/><path d="M324.061 97.061 321.939 94.939 319 97.879 316.061 94.939 313.939 97.061 316.879 100 313.939 102.939 316.061 105.061 319 102.121 321.939 105.061 324.061 102.939 321.121 100 324.061 97.061Z"/><path d="M321.939 106.939 319 109.879 316.061 106.939 313.939 109.061 316.879 112 313.939 114.939 316.061 117.061 319 114.121 321.939 117.061 324.061 114.939 321.121 112 324.061 109.061 321.939 106.939Z"/><path d="M333 98 350 98 350 102 333 102Z"/><path d="M333 110 350 110 350 114 333 114Z"/><path d="M333 74 350 74 350 78 333 78Z"/><path d="M333 86 350 86 350 90 333 90Z"/><path d="M312.707 75.8 314.8 73.707 317.4 76.307 324 69.707 326.093 71.8 317.4 80.493 312.707 75.8Z"/><path d="M312.707 87.8 314.8 85.707 317.4 88.307 324 81.707 326.093 83.8 317.4 92.493 312.707 87.8Z"/></g></svg>