<svg width="96" height="96" xmlns="http://www.w3.org/2000/svg" xmlns:xlink="http://www.w3.org/1999/xlink" xml:space="preserve" overflow="hidden"><defs><clipPath id="clip0"><rect x="299" y="136" width="96" height="96"/></clipPath></defs><g clip-path="url(#clip0)" transform="translate(-299 -136)"><path d="M372 218 322 218 322 150 372 150 372 218ZM378 144 316 144 316 224 378 224 378 144Z"/><path d="M328 202 346 202 346 206 328 206Z"/><path d="M328 158 366 158 366 162 328 162Z"/><path d="M328 166 366 166 366 170 328 170Z"/><path d="M328 174 366 174 366 178 328 178Z"/><path d="M347 182 366 182 366 186 347 186Z"/><path d="M362.9 211 359 207.1 355.1 211 352 207.9 355.9 204 352 200.1 355.1 197 359 200.9 362.9 197 366 200.1 362.1 204 366 207.9Z"/></g></svg>