<svg width="96" height="96" xmlns="http://www.w3.org/2000/svg" xmlns:xlink="http://www.w3.org/1999/xlink" xml:space="preserve" overflow="hidden"><defs><clipPath id="clip0"><rect x="39" y="504" width="96" height="96"/></clipPath></defs><g clip-path="url(#clip0)" transform="translate(-39 -504)"><path d="M89 534 85 534C82.8 534 81 532.2 81 530L81 522C81 519.8 82.8 518 85 518L89 518C91.2 518 93 519.8 93 522L93 530C93 532.2 91.2 534 89 534Z"/><path d="M119 554 95 554 95 550 119 550 119 554ZM119 566 95 566 95 562 119 562 119 566ZM119 578 95 578 95 574 119 574 119 578ZM87 578 55 578 55 570C55 568.8 55.6 567.6 56.6 566.8 58.8 565.2 61.6 563.8 64.4 563 66.6 562.4 68.8 562 71 562 73.4 562 75.6 562.4 77.6 563 80.4 563.8 83.2 565 85.4 566.8 86.4 567.6 87 568.8 87 570L87 578ZM71 544C75.4 544 79 547.6 79 552 79 556.4 75.4 560 71 560 66.6 560 63 556.4 63 552 63 547.6 66.6 544 71 544ZM123 530 97 530C97 534.4 93.4 538 89 538L85 538C80.6 538 77 534.4 77 530L51 530C48.8 530 47 531.8 47 534L47 582C47 584.2 48.8 586 51 586L123 586C125.2 586 127 584.2 127 582L127 534C127 531.8 125.2 530 123 530Z"/></g></svg>