<svg width="96" height="96" xmlns="http://www.w3.org/2000/svg" xmlns:xlink="http://www.w3.org/1999/xlink" xml:space="preserve" overflow="hidden"><defs><clipPath id="clip0"><rect x="170" y="40" width="96" height="96"/></clipPath></defs><g clip-path="url(#clip0)" transform="translate(-170 -40)"><path d="M220 109.2 220 114.5 216 114.5 216 109.2C213.7 108.4 212 106.2 212 103.5 212 100.2 214.7 97.5 218 97.5 221.3 97.5 224 100.2 224 103.5 224 106.1 222.3 108.3 220 109.2ZM203 72.5C203 64.2 209.7 57.5 218 57.5 226.3 57.5 233 64.2 233 72.5L233 83.6 218 82.5 203 83.6 203 72.5ZM239 84 239 72.5C239 60.9 229.6 51.5 218 51.5 206.4 51.5 197 60.9 197 72.5L197 84 190 84.5 190 122.5 218 124.5 246 122.5 246 84.5 239 84Z"/></g></svg>