<svg width="96" height="96" xmlns="http://www.w3.org/2000/svg" xmlns:xlink="http://www.w3.org/1999/xlink" xml:space="preserve" overflow="hidden"><defs><clipPath id="clip0"><rect x="172" y="128" width="96" height="96"/></clipPath></defs><g clip-path="url(#clip0)" transform="translate(-172 -128)"><path d="M254 170 186 170 186 154 254 154 254 170ZM254 198 186 198 186 182 254 182 254 198ZM256 148 184 148C181.8 148 180 149.8 180 152L180 200C180 202.2 181.8 204 184 204L256 204C258.2 204 260 202.2 260 200L260 152C260 149.8 258.2 148 256 148Z"/><path d="M192 188 208 188 208 192 192 192Z"/><path d="M212 188 220 188 220 192 212 192Z"/></g></svg>