<svg width="96" height="96" xmlns="http://www.w3.org/2000/svg" xmlns:xlink="http://www.w3.org/1999/xlink" xml:space="preserve" overflow="hidden"><defs><clipPath id="clip0"><rect x="438" y="351" width="96" height="96"/></clipPath></defs><g clip-path="url(#clip0)" transform="translate(-438 -351)"><path d="M528.006 379 444.006 379C441.797 379 440.006 380.791 440.006 383L440.006 415C440.006 417.209 441.797 419 444.006 419L528.006 419C530.215 419 532.006 417.209 532.006 415L532.006 383C532.006 380.791 530.215 379 528.006 379ZM488.006 386 494.006 386 494.006 392 488.006 392ZM488.006 396 494.006 396 494.006 402 488.006 402ZM478.006 386 484.006 386 484.006 392 478.006 392ZM478.006 396 484.006 396 484.006 402 478.006 402ZM468.006 386 474.006 386 474.006 392 468.006 392ZM468.006 396 474.006 396 474.006 402 468.006 402ZM454.006 412 448.006 412 448.006 406 454.006 406ZM454.006 402 448.006 402 448.006 396 454.006 396ZM454.006 392 448.006 392 448.006 386 454.006 386ZM464.006 412 458.006 412 458.006 406 464.006 406ZM464.006 402 458.006 402 458.006 396 464.006 396ZM464.006 392 458.006 392 458.006 386 464.006 386ZM504.006 412 468.006 412 468.006 406 504.006 406ZM504.006 402 498.006 402 498.006 396 504.006 396ZM504.006 392 498.006 392 498.006 386 504.006 386ZM514.006 412 508.006 412 508.006 406 514.006 406ZM514.006 402 508.006 402 508.006 396 514.006 396ZM514.006 392 508.006 392 508.006 386 514.006 386ZM524.006 412 518.006 412 518.006 406 524.006 406ZM524.006 402 518.006 402 518.006 396 524.006 396ZM524.006 392 518.006 392 518.006 386 524.006 386Z"/></g></svg>