<svg width="96" height="96" xmlns="http://www.w3.org/2000/svg" xmlns:xlink="http://www.w3.org/1999/xlink" xml:space="preserve" overflow="hidden"><defs><clipPath id="clip0"><rect x="447" y="40" width="96" height="96"/></clipPath></defs><g clip-path="url(#clip0)" transform="translate(-447 -40)"><path d="M499.1 122.1 468 109.2 490.8 53.9 522 66.8 499.1 122.1ZM505.8 52 512.7 54.9C513.7 55.3 514.1 56.4 513.7 57.3 513.3 58.3 512.2 58.7 511.3 58.3L504.4 55.4C503.4 55 503 53.9 503.4 53 503.7 52.1 504.8 51.6 505.8 52ZM529.7 57.8 491.7 42.1C490.7 41.7 489.7 42.2 489.3 43.1L459.3 115.7C458.9 116.7 459.4 117.7 460.3 118.1L498.3 133.8C499.3 134.2 500.3 133.7 500.7 132.8L530.6 60.2C531.1 59.3 530.6 58.2 529.7 57.8L529.7 57.8Z"/><path d="M517.4 116.7 515.1 113.3 519.6 110.3 518.3 103.7 523.9 99.9 522.6 93.3 528.2 89.6 527.1 84.3 531 83.5 532.6 91.4 527 95.2 528.3 101.8 522.7 105.5 524.1 112.2Z"/><path d="M458.9 92.6 457.4 84.6 463 80.9 461.6 74.3 467.2 70.5 465.9 63.9 472.6 59.4 474.9 62.7 470.4 65.7 471.7 72.3 466.1 76.1 467.4 82.7 461.8 86.5 462.9 91.8Z"/></g></svg>