<svg width="96" height="96" xmlns="http://www.w3.org/2000/svg" xmlns:xlink="http://www.w3.org/1999/xlink" xml:space="preserve" overflow="hidden"><defs><clipPath id="clip0"><rect x="353" y="180" width="96" height="96"/></clipPath></defs><g clip-path="url(#clip0)" transform="translate(-353 -180)"><path d="M419 260 383 260 383 196 419 196 419 260ZM397 188 405 188C406.1 188 407 188.9 407 190 407 191.1 406.1 192 405 192L397 192C395.9 192 395 191.1 395 190 395 188.9 395.9 188 397 188ZM423 184 379 184C377.9 184 377 184.9 377 186L377 270C377 271.1 377.9 272 379 272L423 272C424.1 272 425 271.1 425 270L425 186C425 184.9 424.1 184 423 184Z"/></g></svg>