<svg width="96" height="96" xmlns="http://www.w3.org/2000/svg" xmlns:xlink="http://www.w3.org/1999/xlink" xml:space="preserve" overflow="hidden"><defs><clipPath id="clip0"><rect x="40" y="312" width="96" height="96"/></clipPath></defs><g clip-path="url(#clip0)" transform="translate(-40 -312)"><path d="M126 384C126 385.3 124.5 386.5 122 387.4L122 383.8C123.4 383.4 124.8 382.8 126 382.2L126 384ZM118 377.4 118 373.8C119.4 373.4 120.8 372.8 122 372.2L122 374C122 375.3 120.5 376.5 118 377.4ZM118 388.6C116.8 388.9 115.4 389.1 114 389.3L114 385.4C115.3 385.2 116.7 385 118 384.8L118 388.6ZM110 375.4C111.3 375.2 112.7 375 114 374.8L114 378.6C112.8 378.9 111.4 379.1 110 379.3L110 375.4ZM110 389.8C108.7 389.9 107.4 390 106 390L106 386C107.2 386 108.6 385.9 110 385.8L110 389.8ZM102 380 102 376C103.2 376 104.6 375.9 106 375.8L106 379.8C104.7 379.9 103.4 379.9 102 380ZM102 390C100.6 390 99.3 389.9 98 389.8L98 386C98.7 386 99.3 386 100 386 100.6 386 101.3 386 102 386L102 390ZM94 375.8C95.3 375.9 96.6 376 98 376L98 380C96.6 380 95.3 379.9 94 379.8L94 375.8ZM94 389.3C92.6 389.1 91.2 388.9 90 388.6L90 385.4C91.3 385.6 92.6 385.7 94 385.8L94 389.3ZM86 378.6 86 374.7C87.3 374.9 88.6 375.2 90 375.3L90 379.3C88.6 379.1 87.2 378.9 86 378.6ZM86 387.4C83.5 386.4 82 385.2 82 384L82 383.8C82 383.8 82 383.8 82.1 383.8 82.4 383.9 82.6 384 82.9 384 83.9 384.3 84.9 384.5 86 384.7L86 387.4ZM70 373.8C70.7 373.8 71.3 373.9 72 373.9L72 374C72 375.4 72.3 376.8 73 377.9 72 377.9 71 377.8 70 377.7L70 373.8ZM66 361.8C67.3 362 68.6 362.3 70 362.4L70 366.4C68.6 366.2 67.2 366 66 365.7L66 361.8ZM66 377.3C64.6 377.1 63.2 376.9 62 376.6L62 372.7C63.3 372.9 64.6 373.2 66 373.3L66 377.3ZM58 361 58 359.2C59.2 359.8 60.5 360.3 62 360.7L62 364.4C59.5 363.5 58 362.3 58 361ZM58 375.4C55.5 374.4 54 373.2 54 372L54 370.2C55.2 370.8 56.5 371.3 58 371.7L58 375.4ZM54 344.2C55.2 344.8 56.5 345.3 58 345.7L58 349.4C55.5 348.4 54 347.2 54 346L54 344.2ZM66 347.4 66 351.4C64.6 351.2 63.2 351 62 350.7L62 346.8C63.3 347 64.6 347.2 66 347.4ZM76 330C88.2 330 98 332.7 98 336 98 339.3 88.2 342 76 342 63.8 342 54 339.3 54 336 54 332.7 63.8 330 76 330ZM82 377.4C79.5 376.4 78 375.2 78 374L78 372.2C79.2 372.8 80.5 373.3 82 373.7L82 377.4ZM94 349.4 94 345.8C95.4 345.4 96.8 344.8 98 344.2L98 346C98 347.3 96.5 348.5 94 349.4ZM86 351.3 86 347.4C87.3 347.2 88.7 347 90 346.8L90 350.6C88.8 350.9 87.4 351.1 86 351.3ZM78 352 78 348C79.2 348 80.6 347.9 82 347.8L82 351.8C80.7 351.9 79.4 351.9 78 352ZM70 351.8 70 347.8C71.3 347.9 72.6 348 74 348L74 352C72.6 351.9 71.3 351.9 70 351.8ZM122 364C122 367.3 112.2 370 100 370 87.8 370 78 367.3 78 364 78 360.7 87.8 358 100 358 112.2 358 122 360.7 122 364ZM128 367 128 364C128 359.3 124.3 355.9 117.1 354 114.4 353.3 111.3 352.7 107.8 352.4 107.9 352 107.9 351.5 107.9 351 107.9 348.2 106.6 345.8 103.9 344L103.9 336C103.9 331.3 100.2 327.9 93 326 88.3 324.7 82.3 324 75.9 324 67.5 324 47.9 325.2 47.9 336L47.9 346C47.9 348.8 49.2 351.2 51.9 353L51.9 354.9C49.5 356.6 47.9 358.9 47.9 362L47.9 372C47.9 376.7 51.6 380.1 58.8 382 63.5 383.3 69.5 384 75.9 384 75.9 388.7 79.6 392.1 86.8 394 91.5 395.3 97.5 396 103.9 396 112.3 396 131.9 394.8 131.9 384L131.9 374C132 371.2 130.7 368.8 128 367Z"/></g></svg>