<svg width="96" height="96" xmlns="http://www.w3.org/2000/svg" xmlns:xlink="http://www.w3.org/1999/xlink" xml:space="preserve" overflow="hidden"><defs><clipPath id="clip0"><rect x="433" y="137" width="96" height="96"/></clipPath></defs><g clip-path="url(#clip0)" transform="translate(-433 -137)"><path d="M505.006 179 505.006 175 516.006 175C517.111 175 518.006 174.104 518.006 173L518.006 156C518.006 154.896 517.111 154 516.006 154L487.006 154C485.902 154 485.006 154.896 485.006 156L485.006 172.013C487.457 172.098 489.769 173.176 491.408 175L498.006 175 498.006 179ZM489.006 171 489.006 158 514.006 158 514.006 171Z"/><path d="M450.198 216 454.573 188 465.716 188 467.001 182 443.006 182C441.349 182 440.006 183.343 440.006 185 440.006 186.657 441.349 188 443.006 188L448.501 188 444.126 216Z"/><path d="M507.438 188 511.813 216 517.886 216 513.511 188 519.006 188C520.663 188 522.006 186.657 522.006 185 522.006 183.343 520.663 182 519.006 182L494.138 182 495.423 188Z"/><path d="M444.006 156 444.006 173C444.006 174.104 444.901 175 446.006 175L457.006 175 457.006 179 464.006 179 464.006 175 469.73 175C471.435 173.098 473.866 172.008 476.42 172L477.006 172 477.006 156C477.006 154.896 476.11 154 475.006 154L446.006 154C444.901 154 444.006 154.896 444.006 156ZM448.006 158 473.006 158 473.006 171 448.006 171Z"/><path d="M494.014 195.743 490.586 179.743C489.993 176.976 487.548 175 484.719 175L476.42 175C473.591 175 471.146 176.976 470.553 179.743L467.124 195.743C466.432 198.982 468.496 202.169 471.736 202.862 471.748 202.865 471.76 202.867 471.772 202.87L470.227 216 474.255 216 475.784 203 485.354 203 486.884 216 490.911 216 489.367 202.87C492.61 202.197 494.694 199.023 494.022 195.779 494.019 195.767 494.017 195.755 494.014 195.743Z"/></g></svg>