<svg width="96" height="96" xmlns="http://www.w3.org/2000/svg" xmlns:xlink="http://www.w3.org/1999/xlink" xml:space="preserve" overflow="hidden"><defs><clipPath id="clip0"><rect x="169" y="319" width="96" height="96"/></clipPath></defs><g clip-path="url(#clip0)" transform="translate(-169 -319)"><path d="M224 345.9C224 349.8 220.9 352.9 217 352.9 213.1 352.9 210 349.8 210 345.9 210 342 213.1 338.9 217 338.9 220.9 338.9 224 342.1 224 345.9"/><path d="M252 349.9C252 353.8 248.9 356.9 245 356.9 241.1 356.9 238 353.8 238 349.9 238 346 241.1 342.9 245 342.9 248.9 342.9 252 346 252 349.9"/><path d="M196 349.9C196 353.8 192.9 356.9 189 356.9 185.1 356.9 182 353.8 182 349.9 182 346 185.1 342.9 189 342.9 192.9 342.9 196 346 196 349.9"/><path d="M177.6 395.1C177.6 380.5 195.2 368.7 217 368.7 238.7 368.7 256.4 380.5 256.4 395.1L177.6 395.1Z"/><path d="M186.6 372.4C190.8 369.6 195.7 367.4 201 366L201 364.9C201 363.8 200.5 362.7 199.8 362 199.5 361.7 198.8 361.3 197.9 360.9 192.4 358.3 185.9 358.3 180.3 360.8 179.3 361.2 178.5 361.7 178.1 362 177.5 362.7 177 363.8 177 364.9L177 381.9C179.3 378.4 182.5 375.1 186.6 372.4"/><path d="M229 365 229 360.9C229 359.8 228.5 358.7 227.8 358 227.5 357.7 226.8 357.3 225.9 356.9 220.4 354.3 213.9 354.3 208.3 356.8 207.3 357.2 206.5 357.7 206.1 358 205.3 358.7 204.9 359.8 204.9 360.9L204.9 365C208.8 364.2 212.8 363.8 216.9 363.8 221 363.8 225.1 364.3 229 365"/><path d="M257 381.9 257 364.9C257 363.8 256.5 362.7 255.8 362 255.5 361.7 254.8 361.3 253.9 360.9 248.4 358.3 241.9 358.3 236.3 360.8 235.3 361.2 234.5 361.7 234.1 362 233.3 362.7 232.9 363.8 232.9 364.9L232.9 366C238.2 367.4 243.1 369.6 247.3 372.4 251.5 375.1 254.7 378.4 257 381.9"/></g></svg>