<svg width="96" height="96" xmlns="http://www.w3.org/2000/svg" xmlns:xlink="http://www.w3.org/1999/xlink" xml:space="preserve" overflow="hidden"><defs><clipPath id="clip0"><rect x="40" y="120" width="96" height="96"/></clipPath></defs><g clip-path="url(#clip0)" transform="translate(-40 -120)"><path d="M73 150.8C73 155.771 68.9706 159.8 64 159.8 59.0294 159.8 55 155.771 55 150.8 55 145.829 59.0294 141.8 64 141.8 68.9706 141.8 73 145.829 73 150.8Z"/><path d="M121 150.8C121 155.771 116.971 159.8 112 159.8 107.029 159.8 103 155.771 103 150.8 103 145.829 107.029 141.8 112 141.8 116.971 141.8 121 145.829 121 150.8Z"/><path d="M106 194.2 106 185.2C106 183.8 105.4 182.4 104.2 181.6 101.8 179.6 98.6 178.2 95.4 177.4 93.2 176.8 90.6 176.2 88 176.2 85.6 176.2 83 176.6 80.6 177.4 77.4 178.2 74.4 179.8 71.8 181.6 70.6 182.6 70 183.8 70 185.2L70 194.2 106 194.2Z"/><path d="M97 164.8C97 169.771 92.9706 173.8 88 173.8 83.0294 173.8 79 169.771 79 164.8 79 159.829 83.0294 155.8 88 155.8 92.9706 155.8 97 159.829 97 164.8Z"/><path d="M128.2 167.6C125.8 165.6 122.6 164.2 119.4 163.4 117.2 162.8 114.6 162.2 112 162.2 109.6 162.2 107 162.6 104.6 163.4 103.4 163.8 102.2 164.2 101 164.8L101 165C101 168.4 99.6 171.6 97.4 173.8 101.2 175 104.2 176.6 106.6 178.4 107.2 179 107.8 179.4 108.2 180.2L130 180.2 130 171.2C130 169.8 129.4 168.4 128.2 167.6Z"/><path d="M69.4 178.4 69.4 178.4C72.2 176.4 75.4 174.8 78.6 173.8 76.4 171.4 75 168.4 75 165 75 164.8 75 164.8 75 164.6 73.8 164.2 72.6 163.6 71.4 163.4 69.2 162.8 66.6 162.2 64 162.2 61.6 162.2 59 162.6 56.6 163.4 53.4 164.4 50.4 165.8 47.8 167.6 46.6 168.4 46 169.8 46 171.2L46 180.2 67.6 180.2C68.2 179.4 68.6 179 69.4 178.4Z"/></g></svg>